HIERARCHY
ROOT Hips
{
	OFFSET 0.00000 0.00000 0.00000
	CHANNELS 6 Xposition Yposition Zposition Yrotation Zrotation Xrotation 
	JOINT Lumbar
	{
		OFFSET 0 0 0
		CHANNELS 3 Zrotation Xrotation Yrotation
		JOINT Neck
		{
			OFFSET 0.00 0.2701 0.00
			CHANNELS 3 Zrotation Xrotation Yrotation
			End Site
			{
				OFFSET 0.00 0.1379 0.00
			}
		}
		JOINT RightShoulder
		{
			OFFSET 0.0119 0.2289 0.1181
			CHANNELS 3 Zrotation Xrotation Yrotation
			JOINT RightElbow
			{
				OFFSET 0.00 -0.1475 0.00
				CHANNELS 2 Zrotation Yrotation
				JOINT RightWrist
				{
					OFFSET 0.00 -0.1605 0.00
					CHANNELS 2 Zrotation Xrotation
					End Site
					{
						OFFSET 0.0040 -0.1068 0.0006
					}
				}
			}
		}
		JOINT LeftShoulder
		{
			OFFSET 0.0119 0.2289 -0.1181
			CHANNELS 3 Zrotation Xrotation Yrotation
			JOINT LeftElbow
			{
				OFFSET 0.00 -0.1475 0.00
				CHANNELS 2 Zrotation Yrotation
				JOINT LeftWrist
				{
					OFFSET 0.00 -0.1605 0.00
					CHANNELS 2 Zrotation Xrotation
					End Site
					{
						OFFSET 0.0040 -0.1068 -0.0006
					}
				}
			}
		}
	}
	JOINT RightHip
	{
		OFFSET 0.0316 -0.0424 0.0458
		CHANNELS 3 Zrotation Xrotation Yrotation
		JOINT RightKnee
		{
			OFFSET 0.00 -0.2438 0.00
			CHANNELS 1 Zrotation
			JOINT RightAnkle
			{
				OFFSET 0.00 -0.2449 0.00
				CHANNELS 3 Zrotation Xrotation Yrotation
				End Site
				{
					OFFSET 0.1237 -0.0542 0.0051
				}
			}
		}
	}
	JOINT LeftHip
	{
		OFFSET 0.0316 -0.0424 -0.0458
		CHANNELS 3 Zrotation Xrotation Yrotation
		JOINT LeftKnee
		{
			OFFSET 0.00 -0.2438 0.00
			CHANNELS 1 Zrotation
			JOINT LeftAnkle
			{
				OFFSET 0.00 -0.2449 0.00
				CHANNELS 3 Zrotation Xrotation Yrotation
				End Site
				{
					OFFSET 0.1237 -0.0542 -0.0051
				}
			}
		}
	}
}
MOTION
Frames: 34
Frame Time: 0.02
0.03674 0.58426 0.35443 -214.99882 0 5.47541 6.72399 -2.39142 -2.51473 -37.68049 3.88771 9.26755 9.24927 -16.16943 -33.03918 87.59379 86.59218 8.11368 -0.5323 16.4862 1.80866 26.50483 76.67153 -50.35381 -11.56368 -6.34618 -4.8408 3.04136 2.24298 -34.81988 14.63379 1.14386 2.33811 11.25487 -11.26331 0.62522 -12.46051 -0.86487 3.53577 13.4078
0.03004 0.58401 0.35236 -214.88773 0 5.96957 6.85266 -2.61626 -2.10541 -36.53499 3.19299 8.97704 10.57371 -16.29234 -35.06195 83.61445 85.93851 7.26402 -0.78551 17.80087 3.49996 29.29864 72.36521 -52.20219 -11.16583 -6.03814 -3.63178 1.43759 0.56279 -38.00023 13.61998 1.63395 3.82971 10.63864 -11.65579 3.4814 -12.57068 -0.36795 3.01913 10.55558
0.02348 0.5835 0.35061 -214.74507 0 6.50005 6.96069 -2.82797 -1.68589 -35.26513 2.3414 8.5904 12.17047 -16.38739 -37.16149 78.65583 84.97661 6.33579 -1.1842 19.3138 5.58731 32.09737 67.13991 -53.74925 -10.92058 -5.758 -2.09669 -0.41693 -1.35789 -41.67034 12.3518 1.87174 5.43979 10.07503 -11.97822 7.40424 -12.77306 0.29213 2.35701 6.70533
0.0169 0.5831 0.34874 -214.62906 0 7.02173 7.07123 -3.04992 -1.23909 -34.05517 1.5558 8.22238 13.66347 -16.5125 -39.21798 74.05103 84.16023 5.49342 -1.51807 20.72572 7.51949 34.85068 62.30405 -55.46388 -10.56996 -5.49059 -0.68616 -2.1613 -3.10974 -45.12979 11.16571 2.20767 6.95514 9.49045 -12.3279 10.87111 -12.95169 0.8724 1.77829 3.3739
0.01012 0.58276 0.34678 -214.46401 0 7.51519 7.21229 -3.25523 -0.91819 -32.82997 0.78885 7.95572 15.09417 -16.57207 -41.32703 69.7867 83.3171 4.44324 -1.84889 22.20158 9.36187 37.80519 57.54924 -57.08185 -10.35193 -5.11576 0.63239 -3.90154 -5.1196 -48.56054 10.10088 2.62187 8.65736 8.89208 -12.69763 14.24248 -13.05935 1.48351 1.12788 -0.23496
0.0038 0.58222 0.34507 -214.38982 0 8.07024 7.28416 -3.48905 -0.34161 -31.60904 -0.04945 7.46149 16.70094 -16.75395 -43.33432 64.62484 82.46226 3.80084 -2.21701 23.57927 11.46799 40.33535 52.44142 -58.81032 -9.90583 -4.9689 2.2139 -5.69708 -6.64571 -52.14627 8.74464 2.81071 9.9866 8.33587 -13.00825 18.03179 -13.33023 2.06606 0.59179 -3.49727
-0.00137 0.58113 0.344 -214.60665 0 8.83773 7.17193 -3.8356 1.00746 -30.40994 -1.08657 6.30429 18.84979 -17.33756 -45.0856 56.88846 81.59595 4.3652 -2.68655 24.70165 14.34883 41.68023 46.34287 -61.00059 -8.73857 -5.47465 4.47784 -7.68617 -6.78671 -56.19324 6.47357 2.42676 10.33522 7.87841 -13.17814 23.01246 -14.08338 2.53498 0.40682 -5.61718
-0.00606 0.57985 0.34316 -214.90945 0 9.65647 6.99043 -4.20592 2.60021 -29.2235 -2.18203 4.93192 21.1424 -18.03491 -46.72171 48.34651 80.73772 5.33192 -3.18308 25.70493 17.45442 42.59614 39.96769 -63.29354 -7.34859 -6.2033 6.98631 -9.70286 -6.42909 -60.34615 3.94952 1.82474 10.2885 7.4627 -13.28986 28.32003 -14.98785 2.96772 0.342 -7.3416
-0.01092 0.57871 0.34219 -215.1523 0 10.41817 6.83892 -4.54514 4.03589 -28.04398 -3.22517 3.69622 23.28685 -18.64138 -48.37973 40.3964 79.91239 6.07366 -3.64414 26.71853 20.3629 43.71515 33.87969 -65.48135 -6.09823 -6.81121 9.36042 -11.6395 -6.29386 -64.35367 1.65664 1.33041 10.37082 7.031 -13.42475 33.2845 -15.78685 3.41267 0.22173 -9.21147
-0.016 0.57734 0.34136 -215.48431 0 11.32352 6.69214 -4.96885 5.66778 -26.80498 -4.38506 2.29371 25.78916 -19.40934 -50.16886 31.46183 78.92518 6.98834 -4.20529 27.92313 23.68622 44.80515 27.07886 -67.90546 -4.69122 -7.50376 11.85019 -13.86981 -6.18863 -68.8035 -1.1304 0.79495 10.67236 6.58805 -13.57125 39.11353 -16.74215 3.88105 0.09893 -11.26843
-0.0205 0.57639 0.34029 -215.6488 0 11.94148 6.5204 -5.2233 6.94842 -25.69655 -5.31069 1.18794 27.57856 -19.87211 -51.65688 24.39545 78.27702 7.64207 -4.56616 28.70035 26.19363 45.84748 21.70759 -69.86626 -3.55511 -8.07051 14.14519 -15.49192 -5.89471 -72.33257 -2.95169 0.2919 10.42033 6.17839 -13.68032 43.19792 -17.40898 4.2902 0.01316 -12.81924
-0.02349 0.57664 0.33854 -215.35242 0 11.75208 6.28783 -4.99703 7.20175 -24.92945 -5.5997 0.96222 27.34593 -19.43131 -52.33647 22.72476 78.60015 7.45402 -4.33405 28.3137 26.39148 46.91448 20.37086 -70.51646 -3.22678 -8.25384 15.90531 -15.42426 -5.23585 -73.44602 -1.98391 -0.02438 8.75386 5.84481 -13.70333 42.44629 -17.22155 4.54084 -0.01013 -13.14702
-0.0259 0.57732 0.33654 -214.88046 0 11.2719 6.03445 -4.60118 7.09274 -24.29744 -5.64604 1.04158 26.39321 -18.68552 -52.71719 22.95966 79.25926 6.99405 -3.9042 27.50294 25.75926 47.93899 20.48345 -70.69912 -3.17725 -8.29978 17.44688 -14.74304 -4.39406 -73.59836 -0.04539 -0.30553 6.54443 5.54404 -13.69027 39.91293 -16.74214 4.73291 0.00259 -12.96053
-0.02858 0.57779 0.33462 -214.47406 0 10.92525 5.79631 -4.2879 7.14806 -23.6142 -5.786 0.97643 25.78034 -18.10144 -53.23813 22.3008 79.74132 6.67401 -3.58696 26.89305 25.50542 48.94867 19.92447 -71.10169 -2.99571 -8.3957 19.04661 -14.34367 -3.6158 -74.08768 1.41027 -0.63281 4.56598 5.23175 -13.69232 38.1468 -16.40929 4.95358 0.00607 -12.95213
-0.03123 0.57828 0.33282 -214.13049 0 10.57387 5.53068 -3.95187 7.21318 -22.8865 -5.99649 0.92829 25.11816 -17.4247 -53.73798 21.72981 80.32469 6.29923 -3.17779 26.24264 25.25266 50.08596 19.40969 -71.47757 -2.82818 -8.54996 20.83187 -13.93236 -2.91396 -75.00145 3.03263 -0.84852 2.62246 4.90684 -13.6985 36.56315 -16.02255 5.16513 -0.01737 -13.16127
-0.03382 0.57884 0.33073 -213.61356 0 10.16351 5.31907 -3.62303 7.16884 -22.28573 -6.0041 0.92023 24.38741 -16.8659 -54.21045 21.43965 80.7788 5.96825 -2.90895 25.58018 24.80029 50.95494 19.15085 -71.7951 -2.70144 -8.54975 22.1718 -13.40024 -2.00232 -74.80262 4.54207 -1.27535 0.5049 4.61517 -13.6873 34.1832 -15.67757 5.38172 0.02344 -12.80537
-0.0364 0.57945 0.32791 -212.65708 0 9.65305 5.25562 -3.35189 6.90742 -21.98243 -5.48927 0.94762 23.62821 -16.71718 -54.69597 21.45967 80.7768 5.8264 -3.10871 24.96485 23.97418 51.07756 19.24747 -72.07963 -2.61289 -8.1329 22.36537 -12.68062 -0.68337 -71.75736 5.50001 -2.38 -2.15539 4.40957 -13.6453 29.93803 -15.51154 5.63057 0.22244 -10.96989
-0.03894 0.58011 0.3248 -211.53227 0 9.0944 5.24893 -3.09422 6.54742 -21.80603 -4.78234 1.00616 22.82715 -16.69559 -55.1617 21.70096 80.63625 5.73569 -3.45056 24.35694 22.97939 50.9364 19.55301 -72.31869 -2.5581 -7.56847 22.11138 -11.86149 0.85566 -67.62916 6.31231 -3.68199 -4.93614 4.23571 -13.58563 24.96959 -15.39843 5.88585 0.48619 -8.59357
-0.0415 0.58074 0.32182 -210.48681 0 8.56328 5.22039 -2.83284 6.23404 -21.58439 -4.17722 1.05174 22.05422 -16.60843 -55.62716 21.84394 80.57034 5.61843 -3.70532 23.76155 22.07757 50.92894 19.76163 -72.56889 -2.49302 -7.08618 22.04157 -11.08996 2.38256 -63.99917 7.19429 -4.83485 -7.52878 4.04546 -13.52902 20.39853 -15.26522 6.13579 0.72653 -6.49668
-0.04405 0.58142 0.31886 -209.424 0 7.99902 5.17367 -2.55608 5.90192 -21.3144 -3.5025 1.10222 21.21695 -16.5424 -56.12215 22.04163 80.46708 5.50584 -4.04697 23.0843 21.07833 50.86266 20.027 -72.84243 -2.416 -6.53622 22.04582 -10.28564 3.56989 -60.30006 8.09609 -6.23404 -10.69365 3.86431 -13.49269 15.47849 -15.10463 6.39418 0.94283 -4.24064
-0.0466 0.58202 0.3158 -208.35869 0 7.49519 5.17951 -2.3159 5.58831 -21.17424 -2.93016 1.14663 20.5142 -16.46804 -56.55367 22.15541 80.40406 5.39924 -4.24559 22.58472 20.2524 50.85525 20.2074 -73.06341 -2.36852 -6.09317 21.79185 -9.53571 5.48322 -56.51286 8.90836 -7.17191 -12.70071 3.67177 -13.40967 11.13305 -15.01821 6.63686 1.22408 -2.19307
-0.04915 0.58237 0.31255 -207.33774 0 7.17978 5.30853 -2.18203 5.36781 -21.35431 -2.68946 1.15991 20.18741 -16.32794 -56.82582 21.95673 80.48665 5.29699 -4.00141 22.5774 19.9529 51.08968 20.07455 -73.14537 -2.39135 -5.98809 20.93872 -8.94776 9.616 -52.64257 9.51296 -6.74955 -11.36958 3.43585 -13.20821 8.59396 -15.1176 6.83842 1.66827 -0.86923
-0.05169 0.58266 0.30922 -206.31996 0 6.9267 5.48984 -2.08406 5.1685 -21.66106 -2.55908 1.16582 20.00231 -16.17898 -57.03398 21.6616 80.61263 5.2004 -3.61203 22.75006 19.83658 51.38998 19.84684 -73.17904 -2.44194 -5.99501 19.8415 -8.42299 14.42289 -48.7448 10.02647 -5.86388 -8.8875 3.18789 -12.95928 6.66101 -15.29201 7.02357 2.17515 0.22547
-0.05424 0.58299 0.30592 -205.29392 0 6.63986 5.65295 -1.9645 4.94873 -21.91422 -2.37846 1.178 19.75955 -16.04294 -57.26604 21.41831 80.71678 5.10217 -3.29844 22.84031 19.63618 51.65076 19.67332 -73.2408 -2.48042 -5.9471 18.85409 -7.88113 18.74129 -44.93397 10.57481 -5.21482 -7.00233 2.94809 -12.72833 4.42909 -15.43796 7.214 2.65397 1.43399
-0.05676 0.58327 0.30265 -204.28716 0 6.3732 5.79565 -1.86637 4.76822 -22.15622 -2.19233 1.17894 19.48578 -15.87271 -57.52012 21.14942 80.82559 5.00107 -2.9474 22.93344 19.43273 51.94279 19.46129 -73.27579 -2.5181 -5.91099 17.85527 -7.28802 23.8275 -40.77289 11.14824 -4.46054 -4.80851 2.69841 -12.51233 2.26213 -15.56332 7.41368 3.13475 2.62484
-0.05933 0.58362 0.29928 -203.24763 0 6.08112 5.99116 -1.7335 4.51579 -22.44848 -2.04525 1.20131 19.31172 -15.77107 -57.71213 20.90872 80.9363 4.90735 -2.63918 23.06289 19.28165 52.18881 19.30396 -73.35438 -2.5636 -5.8783 16.82858 -6.81591 27.4829 -37.34592 11.64727 -3.8154 -2.9844 2.46562 -12.25364 0.12338 -15.74683 7.59025 3.62363 3.7859
-0.06208 0.58419 0.2957 -202.07994 0 5.6945 6.33129 -1.48299 4.03025 -22.85962 -1.99086 1.28207 19.37241 -15.85133 -57.75948 20.75783 81.04568 4.82675 -2.4746 23.25248 19.23097 52.29266 19.31837 -73.57777 -2.62291 -5.83334 15.78334 -6.68263 26.92391 -35.98768 11.98172 -3.56159 -2.44567 2.28577 -11.89344 -2.16414 -16.08909 7.70581 4.13496 4.96051
-0.06486 0.58481 0.29203 -200.88694 0 5.28221 6.7203 -1.19864 3.47741 -23.31422 -1.97109 1.38485 19.52991 -16.0019 -57.74422 20.63939 81.15528 4.75425 -2.35923 23.4717 19.22772 52.34893 19.39032 -73.84475 -2.68898 -5.7878 14.72121 -6.66595 24.91915 -35.36886 12.24162 -3.43672 -2.32116 2.12261 -11.49126 -4.42558 -16.48404 7.79884 4.64905 6.10276
-0.06759 0.5854 0.28839 -199.73058 0 4.8878 7.07909 -0.93826 2.97537 -23.74101 -1.92828 1.47914 19.64729 -16.12635 -57.75105 20.51252 81.26292 4.68165 -2.2274 23.67478 19.20301 52.42784 19.43638 -74.08368 -2.75261 -5.73939 13.66973 -6.58303 23.63953 -34.39337 12.52408 -3.26748 -2.01771 1.94933 -11.10511 -6.64386 -16.84367 7.90296 5.15144 7.2311
-0.07049 0.58603 0.28478 -198.46803 0 4.46896 7.47363 -0.64296 2.38939 -24.20637 -1.91864 1.56711 19.75333 -16.2269 -57.78423 20.35617 81.38026 4.59415 -2.06607 23.89535 19.18326 52.50519 19.47828 -74.35526 -2.81517 -5.70743 12.59605 -6.55741 22.09532 -33.5007 12.851 -3.0232 -1.63532 1.78603 -10.7296 -9.07422 -17.25363 8.00297 5.70017 8.47301
-0.07304 0.58659 0.2811 -197.42068 0 4.09454 7.80449 -0.41175 1.96107 -24.59998 -1.84847 1.67314 19.90398 -16.39281 -57.74631 20.26968 81.47637 4.53953 -1.97922 24.08426 19.16323 52.57289 19.54358 -74.57032 -2.88045 -5.64035 11.56887 -6.44027 20.75098 -32.61491 13.06889 -2.97052 -1.53018 1.60649 -10.32325 -11.06385 -17.57073 8.10632 6.15219 9.4731
-0.07461 0.587 0.27723 -196.97341 0 3.84524 7.94833 -0.36708 1.9924 -24.78458 -1.58724 1.82729 20.15511 -16.73252 -57.54648 20.37242 81.51845 4.57353 -2.09127 24.17699 19.12009 52.63242 19.6608 -74.61476 -2.95796 -5.47021 10.66772 -6.03367 20.2989 -31.54189 13.00394 -3.42862 -2.09882 1.37456 -9.83672 -11.84974 -17.6144 8.2253 6.33637 9.81757
-0.07582 0.58734 0.2733 -196.74333 0 3.64196 8.02587 -0.38771 2.18283 -24.89477 -1.26609 1.99809 20.44689 -17.1336 -57.27424 20.54403 81.53819 4.64035 -2.2764 24.23619 19.07591 52.68229 19.79979 -74.60186 -3.03672 -5.26545 9.81674 -5.53226 20.09584 -30.45566 12.83239 -4.07473 -2.93585 1.12664 -9.32192 -12.19501 -17.56336 8.34831 6.42284 9.92015
-0.07719 0.58771 0.26941 -196.41447 0 3.41979 8.13316 -0.37735 2.29562 -25.03862 -0.98212 2.1591 20.71874 -17.49975 -57.02262 20.68175 81.56476 4.69221 -2.42524 24.31081 19.0386 52.73178 19.92839 -74.6179 -3.11055 -5.08002 8.94794 -5.07924 19.78549 -29.39189 12.71006 -4.62866 -3.64995 0.88804 -8.82365 -12.74006 -17.55774 8.46901 6.55378 10.13176
